PathFileType	4	(X/Y/Z)	29_2_81_p0_0-313.trc
DataRate	CameraRate	NumFrames	NumMarkers	Units	OrigDataRate	OrigDataStartFrame	OrigNumFrames
52.0	52.0	7	27	m	52.0	157	314
Frame#	Time	RHip			RKnee			RAnkle			RBigToe			RSmallToe			RHeel			LHip			LKnee			LAnkle			LBigToe			LSmallToe			LHeel			Neck			Head			Nose			RShoulder			RElbow			RWrist			RThumb			RIndex			RPinky			LShoulder			LElbow			LWrist			LThumb			LIndex			LPinky			
		X1	Y1	Z1	X2	Y2	Z2	X3	Y3	Z3	X4	Y4	Z4	X5	Y5	Z5	X6	Y6	Z6	X7	Y7	Z7	X8	Y8	Z8	X9	Y9	Z9	X10	Y10	Z10	X11	Y11	Z11	X12	Y12	Z12	X13	Y13	Z13	X14	Y14	Z14	X15	Y15	Z15	X16	Y16	Z16	X17	Y17	Z17	X18	Y18	Z18	X19	Y19	Z19	X20	Y20	Z20	X21	Y21	Z21	X22	Y22	Z22	X23	Y23	Z23	X24	Y24	Z24	X25	Y25	Z25	X26	Y26	Z26	X27	Y27	Z27	
157	3.019230769230769	0.3071156175815335	0.8194046088959497	1.1417611748382224	0.3108118616597229	0.5641312777532907	1.360216652171722	0.26936928799531956	0.8433909738734233	1.7702221312115558	0.2781105602536956	0.5750901905804924	1.7493177655997465	0.32126444728232956	0.6345198148226351	1.763539304765545	0.2638347384682667	0.9139727244757977	1.8259102640830414	0.11738985539223958	0.8160279548393934	1.12385816926839	0.11270675914576052	0.5296745003418332	1.3451782409272914	0.10851649083667558	0.7796163712231555	1.7267377367866072	0.12684807635672307	0.5624488666119843	1.739966631159343	0.07994623792157747	0.6159879564824573	1.7479617913779804	0.12560971488604664	0.8829379028551446	1.7864126730163836	0.26303935613999024	0.4001361276878542	0.791709174089529	0.3077019184782698	0.25934792288479586	0.5563325162372006	0.28578361369280747	0.21894129546399732	0.6885234584848925	0.4021195560127741	0.3759378407391072	0.8276680442845896	0.37854116487620304	0.390001917719283	1.0381575860643801	0.3349767353607646	0.12263161107475509	1.0168077274099636	0.3264767515851402	-0.045778183070984524	0.9518901560772545	0.3142768395917335	-0.058656036165795226	0.9539318460192073	0.2854374746123625	-0.01751787863436382	0.9772907102857574	0.12652179295040714	0.35085806966009003	0.817042501053119	0.13597595984717123	0.26023193265188344	0.9953447815001217	0.2210110175054616	0.07199315972260277	0.9870103256618803	0.28043625786454274	-0.018069751922818438	0.9622403788859911	0.2658303616949862	-0.06531296776798229	0.9622922580825285	0.24115087750368971	-0.052855632703184385	0.9768363992178628
158	3.0384615384615383	0.30435051819779874	0.8162080424778785	1.1544155156206104	0.3101607397468924	0.5607064885586575	1.358329817418096	0.26946479568837306	0.8435487349523222	1.7703810355367844	0.27823276256808754	0.5743682003483189	1.7490529636640584	0.32155860754903376	0.6337114478092978	1.7636764122877748	0.2640532294948438	0.9131086910079477	1.8251499987496738	0.11781976677558335	0.8175649809017922	1.1333317214257768	0.10760519011374259	0.5298807275215952	1.349546063447177	0.10731929495680109	0.7809191961640224	1.731736824523235	0.12690308113217577	0.562135204074212	1.7399868932262306	0.08587094875525378	0.6005816741395834	1.7416674904622942	0.12552295917652792	0.8786614872844302	1.7865056549884362	0.2596358722822253	0.39935789290965423	0.8124823566715812	0.29700208710852977	0.24797472552268554	0.5797841117867767	0.27913664652766396	0.2054995727176942	0.7043130423398476	0.402282721525917	0.381564378834095	0.84978960861955	0.3760009976094219	0.41391204265363146	1.0576331475964003	0.33291385280858804	0.12883756866868246	1.033533101589239	0.3192433542456938	-0.02948248182745325	0.9882996456273367	0.31120995262884654	-0.09347872488831363	0.960084367105259	0.2964415374169108	-0.036800209388936654	0.994824236124804	0.12038355073661204	0.34511204529781203	0.8388132207294378	0.1493448697238438	0.2864727102886786	1.020644103556819	0.2358457077991988	0.04079774333030517	1.0043654963300865	0.26756752879741535	-0.04440950698617626	0.9917881636068101	0.2637592278967036	-0.09646401549345307	0.9695202039740229	0.2621800192971036	-0.08903037741963224	0.9878264168275808
159	3.0576923076923075	0.30374007127530606	0.8144220505002263	1.1701959834916456	0.3155058703360675	0.5448112149108862	1.3572848073990895	0.2694817904285125	0.8424537533489981	1.7746641981560227	0.2777410090597371	0.574924558548953	1.749264279406805	0.31637618160561704	0.6512685398735799	1.770751268292527	0.2639175521071754	0.9135379584717555	1.8249320523689772	0.12058525745545953	0.7836997529181171	1.1391176117867752	0.10758422806827198	0.5299701741105832	1.3497181384566737	0.10774087558360447	0.7836785609304061	1.7372578572790691	0.12516831542293935	0.5489584631588216	1.7341924391840808	0.0859118068669748	0.6006003772223938	1.7413474288052482	0.12217031378080177	0.86757388771698	1.7902607030624875	0.2571091710090533	0.3883368738123137	0.8197318532994824	0.29675705497191646	0.24924681202119398	0.5905745474799869	0.2792693382423074	0.2064111717758104	0.7186626176029929	0.40513530051814145	0.3688564841475932	0.8592262150470055	0.36967301457800145	0.4116255372463306	1.0700586428720957	0.3257674176510052	0.11948332068983299	1.0423356049047103	0.32334947294974287	-0.048861586087302095	0.9913130185569797	0.2970270273908667	-0.10606334242726914	0.9742399342038562	0.27293834179015786	-0.0617753213529884	1.0005005071840425	0.12479366265282625	0.3518960295501846	0.8587370396311681	0.14540961118215573	0.31489022528405736	1.0411500503874496	0.23341044248198145	0.06451813776260726	1.0199923642456932	0.26295440723123675	-0.026504545213488107	0.9973904342443676	0.2594054640465734	-0.07999188367252633	0.9842176402694967	0.24566550394778092	-0.05314323539934755	1.015324871988248
160	3.076923076923077	0.30353546549115895	0.8156633039224307	1.1664253834904614	0.3158951909358717	0.5478478765371784	1.3590350234270105	0.26956999614450083	0.8420831816670552	1.7745345495555995	0.27735663083734446	0.5690424283499772	1.751086791927612	0.3112025564059777	0.6447381712633395	1.7684142797167457	0.26394566089118865	0.9125200830146029	1.8226744932404202	0.12334398801694828	0.7997662517911027	1.1428313205847278	0.1065012726797337	0.5310146496703537	1.353404764904959	0.10315611917247265	0.7808846392988538	1.7362256099745728	0.12720776042122667	0.5650716751594367	1.744754904851011	0.08589041425314117	0.6006369168592592	1.740929508044669	0.1275956392429786	0.8485863651407407	1.7826046343419515	0.2568681692574477	0.39062696838714195	0.8319417248662629	0.2906404354876	0.22944096958537577	0.5969763135584537	0.2762697341803941	0.20011932029921878	0.7320692018746133	0.4054168907246722	0.3696571468733778	0.8671358073255703	0.3745226016962258	0.3953696492410845	1.0703008905550724	0.328529018868199	0.14115713047326425	1.059828413642903	0.3117532385041302	-0.01661339917038628	1.0084057074074853	0.30186477499356823	-0.04932259174444997	1.0078422531724749	0.2921500350212325	-0.037868964959881235	1.0285069199196708	0.12413592530187832	0.3526685939477678	0.8660296248258575	0.14143700076405474	0.3157541626351609	1.0539229232787766	0.2322893443845826	0.06769646886898326	1.028639447411764	0.2716868915052093	-0.04648945125011518	1.0032252924426113	0.2647011532853433	-0.08938805362256297	0.9997746109054434	0.24556705085319014	-0.05357813720241346	1.030692754430537
161	3.0961538461538463	0.309636266403611	0.7993804086206309	1.155026110209644	0.3152604000270306	0.54550987241196	1.3539710009629906	0.2694918931973015	0.8433070351377459	1.7701453316080804	0.2781754793739978	0.5721876472218048	1.7518147323348179	0.31638172664812786	0.6278832265040215	1.761985763921859	0.2638669532435852	0.913458449190445	1.8181719084922767	0.12200457528038655	0.8012260513805876	1.142839941392847	0.10633217974746847	0.5320810517112424	1.3499413999791507	0.10320527881877034	0.7808063131773061	1.7362611316502519	0.12728679895908812	0.56498459269051	1.7446578377298245	0.09181758846848052	0.5857081000263482	1.7344189040488331	0.12782668406897044	0.8487598996770738	1.7827250136093704	0.2555312979314299	0.39111014452503584	0.842688281423897	0.2859938673629572	0.22772622518293772	0.6008761452281678	0.27758077986754465	0.21268917688125782	0.7474938393096718	0.40465436491010226	0.3702861530692656	0.8711109512224414	0.3821036942545841	0.3973887055768451	1.0832532489304725	0.32742029331396755	0.14024866085860752	1.0666191509824443	0.31463467178006826	-0.008368677632159713	1.013553691037485	0.3017855696932236	-0.04064131747630871	1.0130022911112238	0.2931493078971721	-0.028568669487265507	1.0381653876644081	0.11964932609626755	0.3513181246120198	0.8662598417826416	0.13926908217586378	0.31377591249531656	1.0661658834438923	0.22776034996577393	0.08403237167230179	1.046162941395559	0.2780058147023963	-0.020801418655691982	1.0144346001487223	0.26526267087765343	-0.08842857617457027	1.006189773570536	0.24573931023588133	-0.05432663621714792	1.0318733938423075
162	3.1153846153846154	0.3096909351155556	0.7992941178626748	1.1552314329767515	0.31020293065017107	0.5605904443892117	1.3584505537966207	0.2693733316393239	0.8430014579674409	1.7700694079355452	0.2748951586873812	0.5556221260803123	1.741036116220232	0.3163601590449589	0.6272569863107118	1.7618710100887585	0.26381455598402526	0.9130725937682577	1.8176183562070618	0.12305917611555227	0.8007574281148894	1.1392235809035773	0.11329473698138617	0.5164679315008945	1.3454343832101818	0.10264692705895175	0.7780965255250651	1.730741410366007	0.12684533059585112	0.5621162168249446	1.7395365786741612	0.08598694194413473	0.6004315306600188	1.740645603885168	0.12221262176027296	0.8683939636227137	1.791047138967186	0.2556742447394191	0.3935143935035744	0.8472455086926397	0.2797020534800472	0.21668034464808725	0.602961496936671	0.27505861333372184	0.20280919648511617	0.746605775737832	0.4016825212705144	0.3593929993842222	0.869464024373261	0.37900962591190596	0.38526991626091767	1.0832970203511216	0.32626536584860244	0.1436881604183959	1.0684283519074305	0.3141696461551556	-0.008227465081197106	1.010516673823128	0.29810216922626853	-0.05003983286501804	1.013674790784595	0.2901107091654921	-0.03796059188009661	1.0406281233450303	0.12165632499373362	0.3638194804857784	0.8678363887418954	0.13921692935810334	0.31160470641631743	1.0656295630403558	0.22371946713921778	0.09647933601210087	1.049183651716297	0.27340280947265466	-0.009663248008335517	1.0209838624061316	0.26142016680615937	-0.07808685355623007	1.0111096646567546	0.2438568227637953	-0.04131802029720218	1.0439756878961302
163	3.1346153846153846	0.3087223188178954	0.8003002438401069	1.1590232000651037	0.3151256460092397	0.5454914506911356	1.3539962730445259	0.26932331508636514	0.8432529150793768	1.7701319473539283	0.27528763869602235	0.5582206579910014	1.7459256098032623	0.3114880619358807	0.643226293209843	1.7686659592252145	0.2638788761628537	0.9130115649111568	1.817556800796361	0.1336614493674638	0.7862033841193345	1.1359352302897732	0.11721891311112122	0.5180036315338806	1.3419883528847871	0.10266197207624632	0.7780192705798712	1.730732518538118	0.12522612974272124	0.5485388210564441	1.7335852463380306	0.091850329434738	0.5855857790960973	1.7342946952246692	0.12188016829506143	0.8675887287205694	1.7906930894849602	0.25548034421524746	0.39141323786792465	0.8428511294641298	0.28312137609296484	0.21888683026969077	0.6032604984568473	0.27503260126436513	0.2029221165258756	0.7464728047685988	0.4017604545256726	0.35928555647214877	0.8694040269595746	0.36702652975903144	0.38444182351069744	1.0860952857472481	0.32371438098341043	0.13252898536782162	1.065692849477853	0.314596527722425	-0.00924778308392381	1.0101855254233287	0.29889861202581325	-0.04962361858843489	1.007449736859621	0.28364049309201733	-0.04691051248637184	1.037830980741039	0.12171291655791816	0.3642226155312658	0.8677532013866139	0.14372399446364098	0.31520641882004485	1.0782470084031819	0.22860627897123406	0.08275290560182261	1.0427345761596596	0.26891176367358904	-0.0178113722744283	1.0116159145677035	0.2614002873269444	-0.09176593319075385	1.0081180627612873	0.24374338285547628	-0.040106616876480455	1.04093544289705
